<?xml version="1.0" encoding="UTF-8" standalone="no"?>
<!DOCTYPE svg PUBLIC "-//W3C//DTD SVG 1.1//EN" "http://www.w3.org/Graphics/SVG/1.1/DTD/svg11.dtd">
<svg version="1.1" xmlns="http://www.w3.org/2000/svg" xmlns:xlink="http://www.w3.org/1999/xlink" preserveAspectRatio="xMidYMid meet" viewBox="0 0 640 640" width="640" height="640"><defs><path d="M0 640L0 460.8L179.2 460.8L179.2 640L0 640ZM256 563.2L256 614.4L230.4 614.4L230.4 640L204.8 640L204.8 563.2L230.4 563.2L230.4 512L281.6 512L281.6 563.2L256 563.2ZM614.4 640L614.4 614.4L640 614.4L640 640L614.4 640ZM281.6 640L281.6 614.4L332.8 614.4L332.8 588.8L358.4 588.8L358.4 640L281.6 640ZM384 256L384 230.4L358.4 230.4L358.4 204.8L537.6 204.8L537.6 230.4L512 230.4L512 256L486.4 256L486.4 281.6L460.8 281.6L460.8 307.2L435.2 307.2L435.2 256L460.8 256L460.8 230.4L409.6 230.4L409.6 332.8L460.8 332.8L460.8 307.2L537.6 307.2L537.6 230.4L563.2 230.4L563.2 256L588.8 256L588.8 204.8L640 204.8L640 281.6L614.4 281.6L614.4 256L588.8 256L588.8 281.6L563.2 281.6L563.2 332.8L512 332.8L512 358.4L537.6 358.4L537.6 384L486.4 384L486.4 409.6L537.6 409.6L537.6 384L563.2 384L563.2 435.2L588.8 435.2L588.8 460.8L537.6 460.8L537.6 486.4L563.2 486.4L563.2 537.6L537.6 537.6L537.6 588.8L563.2 588.8L563.2 537.6L614.4 537.6L614.4 563.2L640 563.2L640 588.8L563.2 588.8L563.2 640L537.6 640L537.6 614.4L512 614.4L512 588.8L486.4 588.8L486.4 640L384 640L384 614.4L409.6 614.4L409.6 588.8L384 588.8L384 563.2L435.2 563.2L435.2 537.6L384 537.6L384 563.2L332.8 563.2L332.8 512L358.4 512L358.4 486.4L332.8 486.4L332.8 512L281.6 512L281.6 486.4L307.2 486.4L307.2 435.2L281.6 435.2L281.6 460.8L204.8 460.8L204.8 435.2L256 435.2L256 409.6L230.4 409.6L230.4 384L256 384L256 332.8L230.4 332.8L230.4 307.2L256 307.2L256 281.6L153.6 281.6L153.6 256L179.2 256L179.2 230.4L204.8 230.4L204.8 256L281.6 256L281.6 281.6L307.2 281.6L307.2 230.4L281.6 230.4L281.6 204.8L332.8 204.8L332.8 256L384 256ZM460.8 588.8L435.2 588.8L435.2 614.4L460.8 614.4L460.8 588.8L486.4 588.8L486.4 563.2L512 563.2L512 537.6L460.8 537.6L460.8 588.8ZM25.6 614.4L153.6 614.4L153.6 486.4L25.6 486.4L25.6 614.4ZM281.6 588.8L281.6 563.2L307.2 563.2L307.2 588.8L281.6 588.8ZM51.2 588.8L51.2 512L128 512L128 588.8L51.2 588.8ZM614.4 537.6L614.4 512L640 512L640 537.6L614.4 537.6ZM435.2 512L512 512L512 435.2L435.2 435.2L435.2 512ZM204.8 512L204.8 486.4L230.4 486.4L230.4 512L204.8 512ZM332.8 307.2L281.6 307.2L281.6 358.4L307.2 358.4L307.2 384L281.6 384L281.6 409.6L332.8 409.6L332.8 384L358.4 384L358.4 435.2L332.8 435.2L332.8 460.8L384 460.8L384 486.4L409.6 486.4L409.6 409.6L435.2 409.6L435.2 358.4L409.6 358.4L409.6 384L384 384L384 332.8L358.4 332.8L358.4 358.4L332.8 358.4L332.8 307.2L358.4 307.2L358.4 281.6L332.8 281.6L332.8 307.2ZM460.8 486.4L460.8 460.8L486.4 460.8L486.4 486.4L460.8 486.4ZM614.4 486.4L614.4 460.8L640 460.8L640 486.4L614.4 486.4ZM588.8 435.2L588.8 409.6L614.4 409.6L614.4 332.8L640 332.8L640 435.2L588.8 435.2ZM179.2 358.4L179.2 384L153.6 384L153.6 409.6L179.2 409.6L179.2 384L204.8 384L204.8 435.2L102.4 435.2L102.4 409.6L128 409.6L128 384L102.4 384L102.4 409.6L0 409.6L0 384L76.8 384L76.8 332.8L102.4 332.8L102.4 307.2L204.8 307.2L204.8 358.4L179.2 358.4ZM51.2 230.4L51.2 281.6L25.6 281.6L25.6 358.4L0 358.4L0 256L25.6 256L25.6 230.4L0 230.4L0 204.8L76.8 204.8L76.8 230.4L51.2 230.4ZM128 358.4L179.2 358.4L179.2 332.8L128 332.8L128 358.4ZM588.8 332.8L588.8 281.6L614.4 281.6L614.4 332.8L588.8 332.8ZM51.2 332.8L51.2 307.2L76.8 307.2L76.8 332.8L51.2 332.8ZM76.8 307.2L76.8 230.4L102.4 230.4L102.4 307.2L76.8 307.2ZM128 230.4L128 204.8L179.2 204.8L179.2 230.4L128 230.4ZM384 76.8L384 51.2L409.6 51.2L409.6 102.4L358.4 102.4L358.4 128L332.8 128L332.8 179.2L307.2 179.2L307.2 128L281.6 128L281.6 179.2L256 179.2L256 230.4L204.8 230.4L204.8 102.4L230.4 102.4L230.4 128L281.6 128L281.6 76.8L332.8 76.8L332.8 51.2L358.4 51.2L358.4 76.8L384 76.8ZM153.6 25.6L25.6 25.6L25.6 153.6L153.6 153.6L153.6 25.6ZM358.4 179.2L358.4 128L384 128L384 179.2L358.4 179.2ZM409.6 179.2L409.6 153.6L435.2 153.6L435.2 179.2L409.6 179.2ZM460.8 179.2L460.8 0L640 0L640 179.2L460.8 179.2ZM230.4 179.2L256 179.2L256 153.6L230.4 153.6L230.4 179.2ZM486.4 153.6L614.4 153.6L614.4 25.6L486.4 25.6L486.4 153.6ZM51.2 128L51.2 51.2L128 51.2L128 128L51.2 128ZM512 128L512 51.2L588.8 51.2L588.8 128L512 128ZM230.4 76.8L230.4 51.2L256 51.2L256 76.8L230.4 76.8ZM281.6 51.2L281.6 25.6L230.4 25.6L230.4 51.2L204.8 51.2L204.8 0L307.2 0L307.2 51.2L281.6 51.2ZM358.4 25.6L358.4 0L384 0L384 25.6L358.4 25.6ZM179.2 179.2L0 179.2L0 0L179.2 0L179.2 179.2Z" id="aWC5orsck"></path></defs><g><g><g><use xlink:href="#aWC5orsck" opacity="1" fill="#4acf50" fill-opacity="1"></use><g><use xlink:href="#aWC5orsck" opacity="1" fill-opacity="0" stroke="#000000" stroke-width="1" stroke-opacity="0"></use></g></g></g></g></svg>